<mxfile host="app.diagrams.net" modified="2023-05-17T06:08:16.007Z" agent="Mozilla/5.0 (Windows NT 10.0; Win64; x64) AppleWebKit/537.36 (KHTML, like Gecko) Chrome/113.0.0.0 Safari/537.36" etag="_f8H09q33sqWr2H5asfO" version="21.2.9" type="github">
  <diagram name="Page-1" id="miWb7d4uuUuaklwYYbWX">
    <mxGraphModel dx="1050" dy="573" grid="1" gridSize="10" guides="1" tooltips="1" connect="1" arrows="1" fold="1" page="1" pageScale="1" pageWidth="850" pageHeight="1100" math="0" shadow="0">
      <root>
        <mxCell id="0" />
        <mxCell id="1" parent="0" />
        <mxCell id="7HUqLNvs9Ux1yrwxk3lR-1" value="&lt;font style=&quot;font-size: 20px;&quot;&gt;客戶&lt;/font&gt;" style="rounded=1;whiteSpace=wrap;html=1;" vertex="1" parent="1">
          <mxGeometry x="200" y="260" width="120" height="60" as="geometry" />
        </mxCell>
        <mxCell id="7HUqLNvs9Ux1yrwxk3lR-2" value="&lt;font style=&quot;font-size: 20px;&quot;&gt;收貨人&lt;/font&gt;" style="rounded=1;whiteSpace=wrap;html=1;" vertex="1" parent="1">
          <mxGeometry x="640" y="260" width="120" height="60" as="geometry" />
        </mxCell>
        <mxCell id="7HUqLNvs9Ux1yrwxk3lR-5" value="身份證號碼" style="ellipse;whiteSpace=wrap;html=1;" vertex="1" parent="1">
          <mxGeometry x="10" y="170" width="100" height="50" as="geometry" />
        </mxCell>
        <mxCell id="7HUqLNvs9Ux1yrwxk3lR-7" value="送禮" style="rhombus;whiteSpace=wrap;html=1;" vertex="1" parent="1">
          <mxGeometry x="420" y="250" width="120" height="80" as="geometry" />
        </mxCell>
        <mxCell id="7HUqLNvs9Ux1yrwxk3lR-8" value="" style="endArrow=none;html=1;rounded=0;exitX=1;exitY=0.5;exitDx=0;exitDy=0;entryX=0;entryY=0.5;entryDx=0;entryDy=0;" edge="1" parent="1" source="7HUqLNvs9Ux1yrwxk3lR-1" target="7HUqLNvs9Ux1yrwxk3lR-7">
          <mxGeometry width="50" height="50" relative="1" as="geometry">
            <mxPoint x="400" y="310" as="sourcePoint" />
            <mxPoint x="450" y="260" as="targetPoint" />
          </mxGeometry>
        </mxCell>
        <mxCell id="7HUqLNvs9Ux1yrwxk3lR-9" value="" style="endArrow=none;html=1;rounded=0;exitX=1;exitY=0.5;exitDx=0;exitDy=0;entryX=0;entryY=0.5;entryDx=0;entryDy=0;" edge="1" parent="1" source="7HUqLNvs9Ux1yrwxk3lR-7" target="7HUqLNvs9Ux1yrwxk3lR-2">
          <mxGeometry width="50" height="50" relative="1" as="geometry">
            <mxPoint x="330" y="300" as="sourcePoint" />
            <mxPoint x="430" y="300" as="targetPoint" />
          </mxGeometry>
        </mxCell>
        <mxCell id="7HUqLNvs9Ux1yrwxk3lR-11" value="1" style="text;html=1;strokeColor=none;fillColor=none;align=center;verticalAlign=middle;whiteSpace=wrap;rounded=0;" vertex="1" parent="1">
          <mxGeometry x="340" y="250" width="60" height="30" as="geometry" />
        </mxCell>
        <mxCell id="7HUqLNvs9Ux1yrwxk3lR-12" value="1" style="text;html=1;strokeColor=none;fillColor=none;align=center;verticalAlign=middle;whiteSpace=wrap;rounded=0;" vertex="1" parent="1">
          <mxGeometry x="560" y="250" width="60" height="30" as="geometry" />
        </mxCell>
        <mxCell id="7HUqLNvs9Ux1yrwxk3lR-13" value="&lt;font style=&quot;font-size: 20px;&quot;&gt;訂購單&lt;/font&gt;" style="rounded=1;whiteSpace=wrap;html=1;" vertex="1" parent="1">
          <mxGeometry x="200" y="480" width="120" height="60" as="geometry" />
        </mxCell>
      </root>
    </mxGraphModel>
  </diagram>
</mxfile>
